HIERARCHY
ROOT Hips
{
    OFFSET 0.000 93.020 0.000
    CHANNELS 6 Xposition Yposition Zposition Xrotation Yrotation Zrotation
    JOINT RightUpLeg
    {
        OFFSET -9.250 -1.590 0.000
        CHANNELS 3 Xrotation Yrotation Zrotation
        JOINT RightLeg
        {
            OFFSET 0.000 -41.870 0.000
            CHANNELS 3 Xrotation Yrotation Zrotation
            JOINT RightFoot
            {
                OFFSET 0.000 -41.870 0.000
                CHANNELS 3 Xrotation Yrotation Zrotation
                End Site
                {
                    OFFSET 0.000 -7.690 17.500
                }
            }
        }
    }
    JOINT LeftUpLeg
    {
        OFFSET 9.250 -1.590 0.000
        CHANNELS 3 Xrotation Yrotation Zrotation
        JOINT LeftLeg
        {
            OFFSET 0.000 -41.870 0.000
            CHANNELS 3 Xrotation Yrotation Zrotation
            JOINT LeftFoot
            {
                OFFSET 0.000 -41.870 0.000
                CHANNELS 3 Xrotation Yrotation Zrotation
                End Site
                {
                    OFFSET 0.000 -7.690 17.500
                }
            }
        }
    }
    JOINT Spine
    {
        OFFSET 0.000 14.307 0.000
        CHANNELS 3 Xrotation Yrotation Zrotation
        JOINT Spine1
        {
            OFFSET 0.000 9.718 0.000
            CHANNELS 3 Xrotation Yrotation Zrotation
            JOINT Spine2
            {
                OFFSET 0.000 10.120 0.000
                CHANNELS 3 Xrotation Yrotation Zrotation
                JOINT Spine3
                {
                    OFFSET 0.000 9.718 0.000
                    CHANNELS 3 Xrotation Yrotation Zrotation
                    JOINT Neck
                    {
                        OFFSET 0.000 10.387 0.000
                        CHANNELS 3 Xrotation Yrotation Zrotation
                        JOINT Head
                        {
                            OFFSET 0.000 9.470 0.000
                            CHANNELS 3 Xrotation Yrotation Zrotation
                            End Site
                            {
                                OFFSET 0.000 15.950 0.000
                            }
                        }
                    }
                    JOINT RightShoulder
                    {
                        OFFSET -3.200 6.925 0.000
                        CHANNELS 3 Xrotation Yrotation Zrotation
                        JOINT RightArm
                        {
                            OFFSET -12.800 0.000 0.000
                            CHANNELS 3 Xrotation Yrotation Zrotation
                            JOINT RightForeArm
                            {
                                OFFSET -26.500 0.000 0.000
                                CHANNELS 3 Xrotation Yrotation Zrotation
                                JOINT RightHand
                                {
                                    OFFSET -26.000 0.000 0.000
                                    CHANNELS 3 Xrotation Yrotation Zrotation
                                    JOINT RightHandThumb1
                                    {
                                        OFFSET -2.489 0.190 3.121
                                        CHANNELS 3 Xrotation Yrotation Zrotation
                                        JOINT RightHandThumb2
                                        {
                                            OFFSET -3.683 0.000 0.000
                                            CHANNELS 3 Xrotation Yrotation Zrotation
                                            JOINT RightHandThumb3
                                            {
                                                OFFSET -2.558 0.000 0.000
                                                CHANNELS 3 Xrotation Yrotation Zrotation
                                                End Site
                                                {
                                                    OFFSET -2.194 0.000 0.000
                                                }
                                            }
                                        }
                                    }
                                    JOINT RightInHandIndex
                                    {
                                        OFFSET -3.224 0.508 1.978
                                        CHANNELS 3 Xrotation Yrotation Zrotation
                                        JOINT RightHandIndex1
                                        {
                                            OFFSET -5.217 -0.091 0.999
                                            CHANNELS 3 Xrotation Yrotation Zrotation
                                            JOINT RightHandIndex2
                                            {
                                                OFFSET -3.619 0.000 0.000
                                                CHANNELS 3 Xrotation Yrotation Zrotation
                                                JOINT RightHandIndex3
                                                {
                                                    OFFSET -2.052 0.000 0.000
                                                    CHANNELS 3 Xrotation Yrotation Zrotation
                                                    End Site
                                                    {
                                                        OFFSET -1.805 0.000 0.000
                                                    }
                                                }
                                            }
                                        }
                                    }
                                    JOINT RightInHandMiddle
                                    {
                                        OFFSET -3.382 0.517 0.757
                                        CHANNELS 3 Xrotation Yrotation Zrotation
                                        JOINT RightHandMiddle1
                                        {
                                            OFFSET -5.174 -0.084 0.314
                                            CHANNELS 3 Xrotation Yrotation Zrotation
                                            JOINT RightHandMiddle2
                                            {
                                                OFFSET -3.949 0.000 0.000
                                                CHANNELS 3 Xrotation Yrotation Zrotation
                                                JOINT RightHandMiddle3
                                                {
                                                    OFFSET -2.476 0.000 0.000
                                                    CHANNELS 3 Xrotation Yrotation Zrotation
                                                    End Site
                                                    {
                                                        OFFSET -1.975 0.000 0.000
                                                    }
                                                }
                                            }
                                        }
                                    }
                                    JOINT RightInHandRing
                                    {
                                        OFFSET -3.365 0.538 -0.129
                                        CHANNELS 3 Xrotation Yrotation Zrotation
                                        JOINT RightHandRing1
                                        {
                                            OFFSET -4.635 -0.022 -0.479
                                            CHANNELS 3 Xrotation Yrotation Zrotation
                                            JOINT RightHandRing2
                                            {
                                                OFFSET -3.442 0.000 0.000
                                                CHANNELS 3 Xrotation Yrotation Zrotation
                                                JOINT RightHandRing3
                                                {
                                                    OFFSET -2.388 0.000 0.000
                                                    CHANNELS 3 Xrotation Yrotation Zrotation
                                                    End Site
                                                    {
                                                        OFFSET -1.857 0.000 0.000
                                                    }
                                                }
                                            }
                                        }
                                    }
                                    JOINT RightInHandPinky
                                    {
                                        OFFSET -3.161 0.469 -1.202
                                        CHANNELS 3 Xrotation Yrotation Zrotation
                                        JOINT RightHandPinky1
                                        {
                                            OFFSET -4.141 -0.022 -1.091
                                            CHANNELS 3 Xrotation Yrotation Zrotation
                                            JOINT RightHandPinky2
                                            {
                                                OFFSET -2.757 0.000 0.000
                                                CHANNELS 3 Xrotation Yrotation Zrotation
                                                JOINT RightHandPinky3
                                                {
                                                    OFFSET -1.742 0.000 0.000
                                                    CHANNELS 3 Xrotation Yrotation Zrotation
                                                    End Site
                                                    {
                                                        OFFSET -1.645 0.000 0.000
                                                    }
                                                }
                                            }
                                        }
                                    }
                                }
                            }
                        }
                    }
                    JOINT LeftShoulder
                    {
                        OFFSET 3.200 6.925 0.000
                        CHANNELS 3 Xrotation Yrotation Zrotation
                        JOINT LeftArm
                        {
                            OFFSET 12.800 0.000 0.000
                            CHANNELS 3 Xrotation Yrotation Zrotation
                            JOINT LeftForeArm
                            {
                                OFFSET 26.500 0.000 0.000
                                CHANNELS 3 Xrotation Yrotation Zrotation
                                JOINT LeftHand
                                {
                                    OFFSET 26.000 0.000 0.000
                                    CHANNELS 3 Xrotation Yrotation Zrotation
                                    JOINT LeftHandThumb1
                                    {
                                        OFFSET 2.489 0.190 3.121
                                        CHANNELS 3 Xrotation Yrotation Zrotation
                                        JOINT LeftHandThumb2
                                        {
                                            OFFSET 3.683 0.000 0.000
                                            CHANNELS 3 Xrotation Yrotation Zrotation
                                            JOINT LeftHandThumb3
                                            {
                                                OFFSET 2.558 0.000 0.000
                                                CHANNELS 3 Xrotation Yrotation Zrotation
                                                End Site
                                                {
                                                    OFFSET 2.194 0.000 0.000
                                                }
                                            }
                                        }
                                    }
                                    JOINT LeftInHandIndex
                                    {
                                        OFFSET 3.224 0.508 1.978
                                        CHANNELS 3 Xrotation Yrotation Zrotation
                                        JOINT LeftHandIndex1
                                        {
                                            OFFSET 5.217 -0.091 0.999
                                            CHANNELS 3 Xrotation Yrotation Zrotation
                                            JOINT LeftHandIndex2
                                            {
                                                OFFSET 3.619 0.000 0.000
                                                CHANNELS 3 Xrotation Yrotation Zrotation
                                                JOINT LeftHandIndex3
                                                {
                                                    OFFSET 2.052 0.000 0.000
                                                    CHANNELS 3 Xrotation Yrotation Zrotation
                                                    End Site
                                                    {
                                                        OFFSET 1.805 0.000 0.000
                                                    }
                                                }
                                            }
                                        }
                                    }
                                    JOINT LeftInHandMiddle
                                    {
                                        OFFSET 3.382 0.517 0.757
                                        CHANNELS 3 Xrotation Yrotation Zrotation
                                        JOINT LeftHandMiddle1
                                        {
                                            OFFSET 5.174 -0.084 0.314
                                            CHANNELS 3 Xrotation Yrotation Zrotation
                                            JOINT LeftHandMiddle2
                                            {
                                                OFFSET 3.949 0.000 0.000
                                                CHANNELS 3 Xrotation Yrotation Zrotation
                                                JOINT LeftHandMiddle3
                                                {
                                                    OFFSET 2.476 0.000 0.000
                                                    CHANNELS 3 Xrotation Yrotation Zrotation
                                                    End Site
                                                    {
                                                        OFFSET 1.975 0.000 0.000
                                                    }
                                                }
                                            }
                                        }
                                    }
                                    JOINT LeftInHandRing
                                    {
                                        OFFSET 3.365 0.538 -0.129
                                        CHANNELS 3 Xrotation Yrotation Zrotation
                                        JOINT LeftHandRing1
                                        {
                                            OFFSET 4.635 -0.022 -0.479
                                            CHANNELS 3 Xrotation Yrotation Zrotation
                                            JOINT LeftHandRing2
                                            {
                                                OFFSET 3.442 0.000 0.000
                                                CHANNELS 3 Xrotation Yrotation Zrotation
                                                JOINT LeftHandRing3
                                                {
                                                    OFFSET 2.388 0.000 0.000
                                                    CHANNELS 3 Xrotation Yrotation Zrotation
                                                    End Site
                                                    {
                                                        OFFSET 1.857 0.000 0.000
                                                    }
                                                }
                                            }
                                        }
                                    }
                                    JOINT LeftInHandPinky
                                    {
                                        OFFSET 3.161 0.469 -1.202
                                        CHANNELS 3 Xrotation Yrotation Zrotation
                                        JOINT LeftHandPinky1
                                        {
                                            OFFSET 4.141 -0.022 -1.091
                                            CHANNELS 3 Xrotation Yrotation Zrotation
                                            JOINT LeftHandPinky2
                                            {
                                                OFFSET 2.757 0.000 0.000
                                                CHANNELS 3 Xrotation Yrotation Zrotation
                                                JOINT LeftHandPinky3
                                                {
                                                    OFFSET 1.742 0.000 0.000
                                                    CHANNELS 3 Xrotation Yrotation Zrotation
                                                    End Site
                                                    {
                                                        OFFSET 1.645 0.000 0.000
                                                    }
                                                }
                                            }
                                        }
                                    }
                                }
                            }
                        }
                    }
                }
            }
        }
    }
}
MOTION

Frames: 2
Frame Time: 0.008
-17.512457 92.610146 -4.300099 -164.626083 77.296066 163.077103 -6.218958 -8.896647 -0.863033 23.534071 0.000000 0.000001 -11.670788 -3.510023 1.705625 -6.870512 -5.860287 -0.125435 26.872023 0.000001 0.000001 -173.316086 86.833801 156.844284 2.185838 -5.049746 -0.120301 0.510205 -1.262765 -0.047880 0.818710 -2.097859 -0.075332 1.165029 -0.107707 -0.818979 1.170615 -0.124920 -0.824771 19.244047 -7.506678 -14.215882 -1.112707 0.090121 0.866017 2.933658 19.789566 85.204506 26.325068 4.950283 -5.677691 -13.522392 4.187698 11.622819 -0.000000 21.860001 30.000000 -0.000000 -10.000000 -0.000000 -0.000000 -10.000000 -0.000000 -0.000000 0.000000 -0.000000 -0.000000 2.550000 20.000000 -0.000000 0.000000 24.000000 -0.000000 0.000000 20.000000 -0.000000 0.000000 -0.000000 -0.000000 0.000000 20.000000 -0.000000 0.000000 24.000000 -0.000000 0.000000 20.000000 -0.000000 0.000000 -0.000000 -0.000000 -3.000000 20.000000 -0.000000 0.000000 24.000000 -0.000000 0.000000 20.000000 -0.000000 0.000000 -0.000000 -0.000000 -8.830000 20.000000 -0.000000 0.000000 24.000000 -0.000000 0.000000 20.000000 0.784107 5.410574 -6.791512 5.407554 -19.402054 -78.189117 29.380674 -6.650796 7.082063 -19.847107 0.442084 -6.959903 -0.000000 -21.860001 -30.000000 -0.000000 10.000000 -0.000000 -0.000000 10.000000 -0.000000 -0.000000 0.000000 -0.000000 -0.000000 -2.550000 -20.000000 -0.000000 0.000000 -24.000000 -0.000000 0.000000 -20.000000 -0.000000 0.000000 -0.000000 -0.000000 0.000000 -20.000000 -0.000000 0.000000 -24.000000 -0.000000 0.000000 -20.000000 -0.000000 0.000000 -0.000000 -0.000000 3.000000 -20.000000 -0.000000 0.000000 -24.000000 -0.000000 0.000000 -20.000000 -0.000000 0.000000 -0.000000 -0.000000 8.830000 -20.000000 -0.000000 0.000000 -24.000000 -0.000000 0.000000 -20.000000 
-17.510939 92.609200 -4.300899 -164.626083 77.296066 163.077103 -6.220831 -8.895747 -0.863226 23.539890 0.000001 -0.000002 -11.674740 -3.510893 1.705714 -6.872548 -5.859622 -0.125519 26.877277 -0.000005 -0.000001 -173.314697 86.834450 156.839661 2.185838 -5.049746 -0.120301 0.510205 -1.262765 -0.047880 0.818710 -2.097859 -0.075332 1.165029 -0.107707 -0.818979 1.170615 -0.124920 -0.824771 19.244047 -7.506678 -14.215882 -1.112707 0.090121 0.866017 2.933658 19.789566 85.204506 26.325068 4.950283 -5.677691 -13.522392 4.187698 11.622819 -0.000000 21.860001 30.000000 -0.000000 -10.000000 -0.000000 -0.000000 -10.000000 -0.000000 -0.000000 0.000000 -0.000000 -0.000000 2.550000 20.000000 -0.000000 0.000000 24.000000 -0.000000 0.000000 20.000000 -0.000000 0.000000 -0.000000 -0.000000 0.000000 20.000000 -0.000000 0.000000 24.000000 -0.000000 0.000000 20.000000 -0.000000 0.000000 -0.000000 -0.000000 -3.000000 20.000000 -0.000000 0.000000 24.000000 -0.000000 0.000000 20.000000 -0.000000 0.000000 -0.000000 -0.000000 -8.830000 20.000000 -0.000000 0.000000 24.000000 -0.000000 0.000000 20.000000 0.780320 5.406095 -6.788158 5.409860 -19.416550 -78.193542 29.358400 -6.651356 7.079123 -19.846661 0.441777 -6.955571 -0.000000 -21.860001 -30.000000 -0.000000 10.000000 -0.000000 -0.000000 10.000000 -0.000000 -0.000000 0.000000 -0.000000 -0.000000 -2.550000 -20.000000 -0.000000 0.000000 -24.000000 -0.000000 0.000000 -20.000000 -0.000000 0.000000 -0.000000 -0.000000 0.000000 -20.000000 -0.000000 0.000000 -24.000000 -0.000000 0.000000 -20.000000 -0.000000 0.000000 -0.000000 -0.000000 3.000000 -20.000000 -0.000000 0.000000 -24.000000 -0.000000 0.000000 -20.000000 -0.000000 0.000000 -0.000000 -0.000000 8.830000 -20.000000 -0.000000 0.000000 -24.000000 -0.000000 0.000000 -20.000000 
